<?xml version="1.0" encoding="iso-8859-1"?>
<!-- Generator: Adobe Illustrator 18.0.0, SVG Export Plug-In . SVG Version: 6.00 Build 0)  -->
<!DOCTYPE svg PUBLIC "-//W3C//DTD SVG 1.1//EN" "http://www.w3.org/Graphics/SVG/1.1/DTD/svg11.dtd">
<svg version="1.1" id="Capa_1" xmlns="http://www.w3.org/2000/svg" xmlns:xlink="http://www.w3.org/1999/xlink" x="0px" y="0px"
	 viewBox="0 0 420.329 420.329" style="enable-background:new 0 0 420.329 420.329;" xml:space="preserve">
<g>
	<path d="M360.546,0H86.43C69.953,0,56.548,13.405,56.548,29.882v18.11H37.401c-4.142,0-7.5,3.358-7.5,7.5s3.358,7.5,7.5,7.5h19.147
		v62.336H37.401c-4.142,0-7.5,3.358-7.5,7.5s3.358,7.5,7.5,7.5h19.147v62.336H37.401c-4.142,0-7.5,3.358-7.5,7.5s3.358,7.5,7.5,7.5
		h19.147v62.336H37.401c-4.142,0-7.5,3.358-7.5,7.5s3.358,7.5,7.5,7.5h19.147v62.336H37.401c-4.142,0-7.5,3.358-7.5,7.5
		s3.358,7.5,7.5,7.5h19.147v18.11c0,16.477,13.405,29.882,29.882,29.882h274.116c16.477,0,29.882-13.405,29.882-29.882V29.882
		C390.428,13.405,377.023,0,360.546,0z M320.602,176.534h54.826V242.3h-54.826V176.534z M320.602,161.534V95.767h54.826v65.767
		H320.602z M320.602,257.3h54.826v65.767h-54.826V257.3z M71.548,390.447v-18.11h15.633c4.142,0,7.5-3.358,7.5-7.5
		s-3.358-7.5-7.5-7.5H71.548v-62.336h15.633c4.142,0,7.5-3.358,7.5-7.5s-3.358-7.5-7.5-7.5H71.548v-62.336h15.633
		c4.142,0,7.5-3.358,7.5-7.5s-3.358-7.5-7.5-7.5H71.548v-62.336h15.633c4.142,0,7.5-3.358,7.5-7.5s-3.358-7.5-7.5-7.5H71.548V62.992
		h15.633c4.142,0,7.5-3.358,7.5-7.5s-3.358-7.5-7.5-7.5H71.548v-18.11C71.548,21.676,78.224,15,86.43,15h274.116
		c8.206,0,14.882,6.676,14.882,14.882v50.885h-62.326c-4.142,0-7.5,3.358-7.5,7.5v317.063H86.43
		C78.224,405.329,71.548,398.653,71.548,390.447z M360.546,405.329h-39.944v-67.262h54.826v52.38
		C375.428,398.653,368.752,405.329,360.546,405.329z"/>
	<path d="M131.771,87.888h131.554c4.142,0,7.5-3.358,7.5-7.5s-3.358-7.5-7.5-7.5H131.771c-4.142,0-7.5,3.358-7.5,7.5
		S127.629,87.888,131.771,87.888z"/>
	<path d="M263.325,111.491H131.771c-4.142,0-7.5,3.358-7.5,7.5s3.358,7.5,7.5,7.5h131.554c4.142,0,7.5-3.358,7.5-7.5
		S267.467,111.491,263.325,111.491z"/>
	<path d="M263.325,150.094H131.771c-4.142,0-7.5,3.358-7.5,7.5s3.358,7.5,7.5,7.5h131.554c4.142,0,7.5-3.358,7.5-7.5
		S267.467,150.094,263.325,150.094z"/>
	<path d="M263.325,188.696H131.771c-4.142,0-7.5,3.358-7.5,7.5s3.358,7.5,7.5,7.5h131.554c4.142,0,7.5-3.358,7.5-7.5
		S267.467,188.696,263.325,188.696z"/>
	<path d="M263.325,227.299H131.771c-4.142,0-7.5,3.358-7.5,7.5s3.358,7.5,7.5,7.5h131.554c4.142,0,7.5-3.358,7.5-7.5
		S267.467,227.299,263.325,227.299z"/>
	<path d="M263.325,265.902H131.771c-4.142,0-7.5,3.358-7.5,7.5s3.358,7.5,7.5,7.5h131.554c4.142,0,7.5-3.358,7.5-7.5
		S267.467,265.902,263.325,265.902z"/>
	<path d="M263.325,343.107H131.771c-4.142,0-7.5,3.358-7.5,7.5s3.358,7.5,7.5,7.5h131.554c4.142,0,7.5-3.358,7.5-7.5
		S267.467,343.107,263.325,343.107z"/>
	<path d="M263.325,304.505H131.771c-4.142,0-7.5,3.358-7.5,7.5s3.358,7.5,7.5,7.5h131.554c4.142,0,7.5-3.358,7.5-7.5
		S267.467,304.505,263.325,304.505z"/>
	<path d="M341.088,50.753c1.217,2.885,4.152,4.781,7.297,4.621c2.998-0.153,5.676-2.139,6.686-4.963
		c1.038-2.902,0.154-6.225-2.188-8.229c-2.468-2.113-6.133-2.366-8.879-0.636C340.974,43.455,339.691,47.443,341.088,50.753z"/>
	<path d="M353.318,123.724c-4.762-4.762-13.107-1.011-12.791,5.667c0.155,3.266,2.501,6.106,5.663,6.904
		c3.035,0.766,6.33-0.504,8.058-3.112C356.196,130.241,355.832,126.22,353.318,123.724
		C352.968,123.374,354.718,125.113,353.318,123.724z"/>
	<path d="M355.367,289.843c-0.629-3.017-3.025-5.386-6.071-5.922c-3.083-0.543-6.265,0.969-7.804,3.689
		c-1.632,2.883-1.149,6.66,1.215,9.003c2.173,2.153,5.516,2.781,8.316,1.556C354.187,296.786,356.077,293.247,355.367,289.843z"/>
	<path d="M355.367,208.704c-1.01-4.842-6.477-7.49-10.885-5.149c-4.41,2.343-5.214,8.381-1.775,11.919
		c2.392,2.325,6.078,2.864,8.999,1.215C354.472,215.127,356.019,211.83,355.367,208.704z"/>
	<path d="M354.938,369.573c-1.134-2.831-4.073-4.702-7.106-4.625c-3.135,0.079-5.953,2.171-6.935,5.148
		c-2.186,6.626,5.47,12.46,11.281,8.588C355.122,376.721,356.285,372.839,354.938,369.573
		C354.758,369.124,355.128,370.034,354.938,369.573z"/>
</g>
<g>
</g>
<g>
</g>
<g>
</g>
<g>
</g>
<g>
</g>
<g>
</g>
<g>
</g>
<g>
</g>
<g>
</g>
<g>
</g>
<g>
</g>
<g>
</g>
<g>
</g>
<g>
</g>
<g>
</g>
</svg>
